<svg xmlns="http://www.w3.org/2000/svg" viewBox="0 0 24 24"><circle cx="12" cy="12" r="12" fill="#006cff"/><path fill="#fff" d="M14.9 9.8c.1-.1.3-.2.3-.2h3.1c.3 0 .6.3.6.6v7.4s0 .2-.2.4c-.1.1-.3.2-.4.2h-3.1c-.1 0-.2 0-.3-.1-.2-.1-.2-.3-.2-.3-.4.2-.9.4-1.4.6s-1 .2-1.4.3H8c-.6 0-1.2-.4-1.4-1-.3-.8-.6-1.6-.8-2.6-.4-1.5-.6-2.9-.7-4.2C5 9.9 5.8 9 6.9 9h1.6c-.2-.6-.6-1.5-.6-2.6 0-.6.1-1 .2-1.4.6-1.4 1.8-1.6 2.5-1.3.9.4.7 1.2.7 1.3 0 .6 0 2.1 1.6 3.9.6.7 1.3 1.1 1.8 1.2.1-.1.1-.2.2-.3Zm2.6 1.3h-1.3v5.6h1.3v-5.6Zm-4.3-.1c-1.7-1-2.4-2.5-2.6-3.1-.5-1.1-.6-2.1-.6-2.9-.2 0-.3.1-.4.2-.5.7-.2 1.6-.2 1.8.1.4.7 2 .9 2.3.3.5-.1 1.1-.7 1.1H7c-.2 0-.4.2-.4.5.2 1.3.4 2.8.8 4.3.2.6.3 1.2.5 1.7 0 .1.2.3.3.3h3.1c.6 0 1.4-.1 2.3-.5.4-.2.8-.4 1.1-.6v-4.5c-.4-.1-.9-.3-1.5-.6Z"/></svg>