<svg xmlns="http://www.w3.org/2000/svg" viewBox="0 0 21.8 23.94"><path d="M15.7 6.3c0-3.4-3.5-6.3-7.9-6.3S0 2.8 0 6.3s3.5 6.3 7.9 6.3h.8l3.5 2.7c.1.1.3 0 .3-.2l-.8-3.2c2.4-1.1 4-3.1 4-5.6Zm-7.8 3.9c-2.9 0-5.4-1.7-5.4-3.7 0-2.1 2.4-3.7 5.4-3.7s5.4 1.7 5.4 3.7-2.4 3.7-5.4 3.7Z"/><path d="M18.1 11.2c-.6.5-.7 1.4-.1 1.9.8.6 1.2 1.4 1.2 2.3 0 2-2.4 3.6-5.4 3.6-2.4 0-4.4-1.1-5.1-2.6-.2-.6-.9-.9-1.4-.7-.7.2-1.1 1-.8 1.7.7 1.4 1.9 2.5 3.6 3.2l-.8 3.1c0 .2.2.3.3.2l3.5-2.6h.8c4.3 0 7.9-2.7 7.9-6.1 0-1.6-.9-3.1-2.2-4.2-.5-.1-1.1-.1-1.5.2Z"/></svg>