<svg xmlns="http://www.w3.org/2000/svg" id="a" viewBox="0 0 24.6 23.98"><defs><style>.b{fill:#707070}</style></defs><path d="m6.2 18.5-1.3 5.1c0 .3.3.5.5.3l5.5-4.3h1.3c6.8 0 12.4-4.4 12.4-9.8S19.2 0 12.4 0 0 4.4 0 9.8c0 3.8 2.5 6.9 6.2 8.7ZM2.4 9.8c0-4 4.4-7.3 9.8-7.3S22 5.7 22 9.8s-4.4 7.3-9.8 7.3c-5.5 0-9.8-3.4-9.8-7.3Z" class="b"/><path d="M15.9 9.1H8.6C8 9.1 7.5 8.6 7.5 8c0-.6.5-1.1 1.1-1.1h7.2c.6 0 1.1.5 1.1 1.1 0 .7-.5 1.1-1 1.1ZM14.7 12.9h-6c-.6 0-1.1-.5-1.1-1.1 0-.6.5-1.1 1.1-1.1h6c.6 0 1.1.5 1.1 1.1-.1.6-.6 1.1-1.1 1.1Z" class="b"/></svg>