<svg xmlns="http://www.w3.org/2000/svg" viewBox="0 0 22.21 23.95"><path fill="#707070" d="M15.81 9.85c.2-.2.5-.2.5-.3h5c.5 0 .9.4.9.9v11.8c0 .1 0 .4-.3.6-.2.2-.5.3-.6.3h-5c-.1 0-.3 0-.5-.2s-.3-.4-.4-.5c-.6.3-1.4.7-2.3 1-.8.2-1.5.4-2.2.5h-6.2c-1 0-1.9-.6-2.3-1.6-.5-1.2-.9-2.6-1.3-4.1-.6-2.4-.9-4.7-1.11-6.8-.1-1.6 1.2-3 2.8-3h2.5c-.3-.8-.9-2.2-.9-4 0-.9.2-1.6.3-2.2.91-2.2 2.81-2.6 4.01-2 1.4.7 1.2 1.9 1.2 2.1.1 1 .1 3.3 2.5 6.2.9 1.1 2.1 1.7 2.9 1.9.3-.2.3-.4.5-.6Zm4.2 2.1h-2.1v8.9h2.1v-8.9Zm-6.9-.2c-2.7-1.5-3.8-4-4.2-5-.8-1.8-1-3.4-1-4.7-.2.2-.4.3-.5.5-.8 1.1-.3 2.6-.3 2.8.2.6 1.1 3.1 1.4 3.7.4.8-.2 1.7-1.1 1.7h-4.2c-.4 0-.7.3-.7.7.3 2.1.7 4.5 1.3 6.9.2 1 .5 1.9.8 2.8.1.3.3.5.6.5h4.9c.9 0 2.2-.2 3.7-.8.7-.3 1.3-.7 1.7-1v-7.1c-.6-.2-1.5-.5-2.4-1Z"/></svg>